<svg width="18" height="26" viewBox="0 0 18 26" fill="none" xmlns="http://www.w3.org/2000/svg">
<path d="M6.73885 25.8728C6.62443 25.8728 6.51211 25.8282 6.42769 25.7438L4.95908 24.2752L3.52536 25.7089C3.39908 25.8352 3.20931 25.8728 3.04466 25.8031C2.88001 25.734 2.77327 25.5721 2.77536 25.3942L2.80396 22.0105C2.80606 21.7691 3.0021 21.5745 3.2435 21.5745C3.2449 21.5745 3.24629 21.5745 3.24699 21.5745C3.48978 21.5766 3.68513 21.7747 3.68303 22.0175L3.6635 24.3268L4.64862 23.3417C4.82025 23.1701 5.09862 23.1701 5.27025 23.3417L6.32583 24.3973L6.38932 21.984C6.3956 21.7412 6.59653 21.5494 6.84001 21.5563C7.0828 21.5626 7.27397 21.7642 7.26769 22.007L7.17769 25.4431C7.17281 25.6189 7.06467 25.7745 6.90141 25.8401C6.84839 25.8631 6.79327 25.8728 6.73885 25.8728Z" fill="#339989"/>
<path d="M16.6953 4.98439C16.4525 4.98439 16.2558 4.78765 16.2558 4.54486V1.10254C14.4502 1.09486 7.50974 1.06277 3.75696 1.00626C3.10115 0.995096 2.59255 1.1744 2.2458 1.53579C1.81534 1.9837 1.74836 2.58649 1.75953 2.78114C1.77278 3.02323 1.5872 3.23044 1.34441 3.2437C1.10162 3.25626 0.895109 3.07137 0.881853 2.82858C0.860225 2.42742 0.989295 1.57486 1.61232 0.926026C2.13557 0.381841 2.86045 0.112539 3.77092 0.126492C8.08253 0.191376 16.6116 0.224167 16.6974 0.224167C16.9395 0.224864 17.1355 0.421608 17.1355 0.663701V4.54416C17.1348 4.78765 16.9381 4.98439 16.6953 4.98439Z" fill="#01A2AA"/>
<path d="M7.72185 22.2281C5.80813 22.2281 4.23906 22.2267 3.83789 22.2218C1.55091 22.1946 0.872775 20.4546 0.833705 19.5385C0.833705 19.5323 0.833008 19.5253 0.833008 19.519L0.865101 2.79089C0.865101 2.7867 0.865101 2.78391 0.865101 2.78252C0.869985 2.54321 1.06533 2.35205 1.30464 2.35205C1.30603 2.35205 1.30812 2.35205 1.30952 2.35205C1.55091 2.35484 1.74417 2.55159 1.74417 2.79228V2.81042C1.74696 2.9981 1.83696 4.26368 3.78278 4.27484C5.94627 4.2874 16.6193 4.27554 16.7267 4.27554C16.7267 4.27554 16.7267 4.27554 16.7274 4.27554C16.8439 4.27554 16.9556 4.32158 17.0379 4.40391C17.1202 4.48624 17.167 4.59856 17.167 4.71507V21.7823C17.167 22.0251 16.9702 22.2218 16.7281 22.2218C16.65 22.2218 11.5116 22.2281 7.72185 22.2281ZM1.71208 19.5072C1.71626 19.5637 1.75812 20.0102 2.02324 20.4427C2.38394 21.0302 2.99789 21.333 3.84766 21.3434C4.90394 21.356 14.1488 21.3462 16.2865 21.3441V5.1553C14.2409 5.1574 5.68952 5.16507 3.7765 5.15391C2.92673 5.14903 2.24371 4.946 1.73998 4.54903L1.71208 19.5072Z" fill="#01A2AA"/>
<path d="M14.6344 3.04555C14.5709 3.04555 14.5109 3.03229 14.4565 3.00788C13.4142 3.00788 8.03371 3.00578 4.67022 3.0009C4.42743 3.0009 4.23069 2.80346 4.23139 2.56066C4.23139 2.31787 4.42813 2.12183 4.67092 2.12183H4.67162C8.38952 2.12741 14.5723 2.1288 14.6344 2.1288C14.8772 2.1288 15.0739 2.32555 15.0739 2.56834V2.60601C15.0739 2.8488 14.8765 3.04555 14.6344 3.04555Z" fill="#339989"/>
<path d="M14.6344 3.00857C14.6337 3.00857 14.6337 3.00857 14.6344 3.00857C14.5681 3.00857 7.99881 3.00717 4.32763 3.0009C4.08484 3.0002 3.8881 2.80345 3.8888 2.56066C3.88949 2.31787 4.08624 2.12183 4.32833 2.12183H4.32903C7.9995 2.12741 14.5688 2.1295 14.6344 2.1295C14.8772 2.1295 15.0739 2.32624 15.0739 2.56903C15.0732 2.81183 14.8765 3.00857 14.6344 3.00857Z" fill="#339989"/>
</svg>
