<svg width="60" height="58" viewBox="0 0 60 58" fill="none" xmlns="http://www.w3.org/2000/svg">
<path d="M58.5303 57.3405H1.38413C1.07716 57.3405 0.783202 57.2158 0.569248 56.9944C0.355294 56.773 0.239945 56.4754 0.251107 56.1684L0.336689 53.5061C0.347852 42.8661 9.00647 34.2112 19.6502 34.2112H40.4372C51.0866 34.2112 59.7508 42.8754 59.7508 53.5247C59.7508 53.5358 59.7508 53.5489 59.7508 53.56L59.6652 56.241C59.6447 56.8549 59.1424 57.3405 58.5303 57.3405ZM2.55623 55.0726H57.4326L57.4829 53.5098C57.4736 44.12 49.8307 36.4828 40.4391 36.4828H19.6484C10.2493 36.4828 2.6046 44.1293 2.6046 53.5265C2.6046 53.5377 2.6046 53.5507 2.6046 53.5619L2.55623 55.0726Z" fill="#BAC4E3"/>
<path d="M30.0428 29.2475C22.1619 29.2475 15.7488 22.8344 15.7488 14.9535C15.7488 7.07257 22.1619 0.659546 30.0428 0.659546C34.2772 0.659546 38.2679 2.52001 40.9935 5.76652C43.1498 8.3321 44.3368 11.5954 44.3368 14.9535C44.3368 22.8344 37.9256 29.2475 30.0428 29.2475ZM30.0428 2.92745C23.4121 2.92745 18.0186 8.32094 18.0186 14.9516C18.0186 21.5823 23.4121 26.9758 30.0428 26.9758C36.6735 26.9758 42.067 21.5823 42.067 14.9516C42.067 12.1256 41.0679 9.38141 39.2559 7.22327C36.9638 4.49396 33.6056 2.92745 30.0428 2.92745Z" fill="#00D5B5"/>
</svg>
