<svg width="430" height="430" viewBox="0 0 430 430" fill="none" xmlns="http://www.w3.org/2000/svg">
<path d="M215.18 238.33H213.74C177.91 238.33 148.76 209.18 148.76 173.35V144.42C148.76 141.11 151.45 138.42 154.76 138.42C158.07 138.42 160.76 141.11 160.76 144.42V173.35C160.76 202.56 184.53 226.33 213.74 226.33H215.18C244.39 226.33 268.16 202.56 268.16 173.35V140.99C268.16 137.68 270.85 134.99 274.16 134.99C277.47 134.99 280.16 137.68 280.16 140.99V173.35C280.16 209.18 251.01 238.33 215.18 238.33Z" fill="#0A192F"/>
<path d="M238.88 385.81H188.72C179.46 385.81 173.54 382.81 167.27 379.63C159.46 375.67 150.61 371.18 130.88 369.61H112.4C100.95 369.61 91.64 360.3 91.64 348.85V318.49C91.64 273.36 128.35 236.65 173.48 236.65H176.12V223.15C176.12 219.84 178.81 217.15 182.12 217.15C185.43 217.15 188.12 219.83 188.12 223.15L188.13 242.42C188.13 242.5 188.13 242.57 188.13 242.65C188.13 242.7 188.13 242.75 188.13 242.8C188.46 256.01 199.31 266.65 212.6 266.65H215C228.28 266.65 239.13 256.02 239.47 242.82C239.47 242.76 239.47 242.71 239.47 242.65L239.48 223.96C239.48 220.65 242.17 217.96 245.48 217.96C248.71 217.96 251.35 220.51 251.48 223.71C251.48 223.73 251.48 223.75 251.48 223.78C251.48 223.79 251.48 223.79 251.48 223.8V223.81C251.48 223.83 251.48 223.85 251.48 223.88V223.89C251.48 223.89 251.48 223.89 251.48 223.9C251.48 223.92 251.48 223.94 251.48 223.97V236.66H256.52C301.65 236.66 338.36 273.37 338.36 318.5V348.86C338.36 360.31 329.05 369.62 317.6 369.62H296.94C277.33 371.18 268.49 375.66 260.69 379.62C254.43 382.79 248.52 385.79 239.3 385.81C239.16 385.81 239.02 385.81 238.88 385.81ZM238.76 373.81C238.71 373.81 238.66 373.82 238.61 373.82C238.66 373.82 238.71 373.82 238.76 373.81ZM173.48 248.65C134.97 248.65 103.64 279.98 103.64 318.49V348.85C103.64 353.68 107.57 357.61 112.4 357.61H131.12C131.27 357.61 131.43 357.62 131.58 357.63C153.84 359.36 164.74 364.89 172.7 368.93C178.5 371.87 182.33 373.82 188.72 373.82H238.85C239.02 373.81 239.19 373.81 239.36 373.81C245.66 373.77 249.49 371.84 255.26 368.91C263.18 364.9 274.01 359.4 296.01 357.65C296.14 357.64 296.27 357.63 296.4 357.62C296.63 357.61 296.85 357.6 297.08 357.61H317.6C322.43 357.61 326.36 353.68 326.36 348.85V318.49C326.36 279.98 295.03 248.65 256.52 248.65H250.9C247.83 265.69 232.9 278.65 215 278.65H212.6C194.7 278.65 179.76 265.69 176.7 248.65H173.48V248.65Z" fill="#0A192F"/>
<path d="M151 151.24C148.48 151.24 146.16 149.64 145.32 147.17C145.05 146.38 138.69 127.48 136.24 105.96C132.76 75.33 138.86 55.29 154.38 46.4C159.89 43.25 168.12 43.48 173.52 46.94C177.44 49.45 181.16 52.89 184.14 55.65C185.21 56.64 186.23 57.58 187.02 58.26C188.23 59.29 189.73 59.8 191.24 59.74C193.3 59.64 198.72 59.06 204.58 55.92C204.76 55.83 204.94 55.74 205.12 55.66C227.57 46.37 259.01 53.97 260.34 54.3C260.67 54.38 260.99 54.49 261.3 54.63C262.32 55.07 286.23 65.81 286.86 91.3C286.93 94.07 287.01 96.78 287.09 99.44C287.83 124.22 288.37 142.12 277.35 149.08C275.44 150.29 273.02 150.32 271.08 149.16C269.15 148.01 268.02 145.87 268.16 143.63C268.24 142.28 269.58 112.76 240.51 94.09C233.7 108.05 212.28 138.67 152.2 151.11C151.81 151.2 151.4 151.24 151 151.24ZM163.37 56.19C162.22 56.19 161.09 56.4 160.35 56.82C139.41 68.81 148.32 115.61 155.06 138.2C188.3 130.36 207.2 116.52 217.32 106.04C228.76 94.19 231.74 83.96 231.77 83.86C232.26 82.12 233.51 80.68 235.17 79.96C236.83 79.24 238.72 79.29 240.33 80.13C260.44 90.62 270.45 105.36 275.4 118.08C275.48 112.26 275.29 105.88 275.1 99.8C275.02 97.13 274.94 94.39 274.87 91.6C274.47 75.22 259.78 67.23 256.93 65.83C252.92 64.93 227.33 59.62 209.96 66.65C202.34 70.66 195.34 71.56 191.82 71.73C187.24 71.96 182.77 70.42 179.23 67.4C178.25 66.57 177.15 65.55 175.98 64.47C173.34 62.03 170.06 58.99 167.04 57.06C166.17 56.48 164.74 56.19 163.37 56.19Z" fill="#00D5B5"/>
<path d="M266.12 346.33H262.04C250.13 346.33 240.44 336.64 240.44 324.73V323.75C240.44 323.71 240.44 323.68 240.44 323.64C240.44 323.46 240.44 323.28 240.44 323.1V322.57C240.44 322.49 240.44 322.41 240.44 322.33C240.48 317.86 240.72 313.66 241.13 310.4C241.56 307.02 242.44 299.98 248.66 299.98H248.89C248.95 299.98 249.02 299.98 249.08 299.98C250.78 300.03 252.34 300.58 255.09 302.95C260.96 299.36 267.18 299.36 273.05 302.95C275.8 300.58 277.35 300.03 279.06 299.98C279.12 299.98 279.19 299.98 279.25 299.98H279.48C285.69 299.98 286.58 307.02 287.01 310.4C287.42 313.65 287.66 317.84 287.7 322.3C287.7 322.39 287.71 322.48 287.71 322.57V324.73C287.72 336.64 278.03 346.33 266.12 346.33ZM252.44 323.11V324.73C252.44 330.02 256.75 334.33 262.04 334.33H266.12C271.41 334.33 275.72 330.02 275.72 324.73V323.64C275.72 320.9 275.64 318.51 275.52 316.51C274.89 316.74 274.23 316.86 273.55 316.87C271.95 316.92 270.41 316.28 269.27 315.16C265.34 311.31 262.81 311.32 258.88 315.16C257.74 316.28 256.2 316.91 254.6 316.87C253.92 316.86 253.26 316.74 252.63 316.51C252.53 318.38 252.45 320.59 252.44 323.11Z" fill="#00D5B5"/>
</svg>
